<svg width="60" height="60" viewBox="0 0 60 60" fill="none" xmlns="http://www.w3.org/2000/svg">
<path d="M35 36V60H59V36H35ZM57 58H37V38H46V50.586L41.707 46.293L40.293 47.707L47 54.414L53.707 47.707L52.293 46.293L48 50.586V38H57V58Z" fill="#001640"/>
<path d="M22.504 18H33.495C35.428 18 37 16.428 37 14.495V13C37 12.447 36.552 12 36 12C35.448 12 35 12.447 35 13V14.495C35 15.325 34.325 16 33.495 16H22.504C21.675 16 21 15.325 21 14.495V13C21 12.447 20.552 12 20 12C19.448 12 19 12.447 19 13V14.495C19 16.428 20.572 18 22.504 18Z" fill="#001640"/>
<path d="M30 45H22.504C21.675 45 21 44.325 21 43.495V42C21 41.447 20.552 41 20 41C19.448 41 19 41.447 19 42V43.495C19 45.428 20.572 47 22.504 47H30C30.552 47 31 46.553 31 46C31 45.447 30.552 45 30 45Z" fill="#001640"/>
<path d="M29 58H3.832C3.373 58 3 57.627 3 57.168V31H53V33C53 33.553 53.447 34 54 34C54.553 34 55 33.553 55 33V2.832C55 1.271 53.729 0 52.168 0H3.832C2.271 0 1 1.271 1 2.832V57.168C1 58.729 2.271 60 3.832 60H29C29.552 60 30 59.553 30 59C30 58.447 29.552 58 29 58ZM3.832 2H52.168C52.627 2 53 2.373 53 2.832V29H3V2.832C3 2.373 3.373 2 3.832 2Z" fill="#001640"/>
</svg>
